<svg xmlns="http://www.w3.org/2000/svg" width="405" height="84" viewBox="0 0 405 84">
  <g fill-rule="evenodd">
    <path fill-rule="nonzero" d="M57.7777778,7.22222222 L57.7777778,14.4444444 L43.3333333,14.4444444 L43.3333333,7.22222222 L57.7777778,7.22222222 M21.6666667,7.22222222 L21.6666667,28.8888889 L7.22222222,28.8888889 L7.22222222,7.22222222 L21.6666667,7.22222222 M57.7777778,36.1111111 L57.7777778,57.7777778 L43.3333333,57.7777778 L43.3333333,36.1111111 L57.7777778,36.1111111 M21.6666667,50.5555556 L21.6666667,57.7777778 L7.22222222,57.7777778 L7.22222222,50.5555556 L21.6666667,50.5555556 M65,0 L36.1111111,0 L36.1111111,21.6666667 L65,21.6666667 L65,0 M28.8888889,0 L0,0 L0,36.1111111 L28.8888889,36.1111111 L28.8888889,0 M65,28.8888889 L36.1111111,28.8888889 L36.1111111,65 L65,65 L65,28.8888889 M28.8888889,43.3333333 L0,43.3333333 L0,65 L28.8888889,65 L28.8888889,43.3333333 Z" transform="translate(0 2)"/>
    <text font-family="SFUIText-Semibold, SF UI Text" font-size="70" font-weight="500" letter-spacing="-.292">
      <tspan x="81.437" y="67">RootPack</tspan>
    </text>
  </g>
</svg>
