<svg xmlns="http://www.w3.org/2000/svg" xmlns:xlink="http://www.w3.org/1999/xlink" width="793" height="345" viewBox="0 0 793 345">
  <defs>
    <path id="hero_image@1x-a" d="M162.462119,10.5910454 C177.591436,17.8479753 190.965506,28.1771568 203.818047,41.8613862 L204.737576,42.846243 L205.649621,43.8348545 L206.555215,44.8284253 L207.455388,45.8281599 L208.351173,46.8352628 L209.243601,47.8509386 L210.133702,48.876392 L211.022509,49.9128273 L211.911053,50.9614492 C212.059179,51.137302 212.207337,51.3137128 212.355549,51.4907066 L213.245632,52.5598669 L214.138031,53.6442253 L215.033777,54.7449862 L215.933901,55.8633541 L216.839436,57.0005338 L218.210137,58.74421 L219.133708,59.9336887 L220.066299,61.146195 L221.008942,62.3829335 L221.962668,63.6451087 L222.928507,64.9339252 L223.907493,66.2505875 L224.900655,67.5963002 L225.909026,68.9722679 L226.933637,70.379695 L227.975519,71.8197863 L229.572983,74.0438032 L230.662556,75.5708245 L232.336391,77.930883 L234.060691,80.3779869 L243.243995,93.5277006 L244.8401,95.8003867 L246.891093,98.7015904 L248.860299,101.462847 L249.816406,102.793562 L251.217393,104.730133 L252.581184,106.598382 L253.471162,107.807636 L254.779481,109.569719 L255.635197,110.711406 L256.896201,112.376951 L257.723092,113.457488 L258.944937,115.036124 L260.147201,116.567236 L260.939282,117.563286 L261.724835,118.540783 L262.504731,119.500753 L263.279838,120.444223 L264.051028,121.37222 L264.81917,122.285771 L265.585134,123.185903 L266.34979,124.073644 L267.114009,124.950019 L267.878659,125.816058 L268.644611,126.672785 L269.797883,127.942666 L270.570896,128.780611 L271.348256,129.612839 L272.130832,130.440379 L273.429599,131.795977 C273.644434,132.018636 273.858457,132.23966 274.071667,132.459052 L275.341175,133.755852 L276.591189,135.013638 C279.691864,138.109462 282.609869,140.840937 285.345859,143.21854 L286.43055,144.150732 C288.496634,145.906194 290.455195,147.453331 292.30653,148.796903 C305.943443,144.81245 315.043535,145.97647 319.499096,153.027625 L322.047799,155.18092 L321.258,156.115 L321.85812,157.182386 L318.959757,158.812957 C315.50756,162.566034 311.077159,164.115619 305.935984,163.587081 L306.956525,165.060246 L308.068383,166.685791 L308.589451,167.458607 L309.32792,168.569298 L309.791706,169.278133 L310.232856,169.962254 L310.651525,170.622162 L311.047871,171.258359 L311.422053,171.871346 L311.774226,172.461625 L312.104549,173.029698 L312.413179,173.576066 L312.700273,174.10123 C312.746336,174.187018 312.791508,174.271944 312.835793,174.356018 L313.090878,174.850318 C313.131626,174.931025 313.171493,175.010901 313.210482,175.089956 L313.433913,175.55452 L313.636437,175.999887 L313.818211,176.42656 C313.989664,176.844051 314.13023,177.234253 314.240616,177.599421 L314.340968,177.956329 C314.431313,178.305059 314.491714,178.629508 314.52288,178.931935 C314.728938,180.931451 313.942831,182.947782 311.699208,183.817899 C310.216588,184.392886 308.932649,184.1672 307.534178,183.559414 C306.599299,183.153109 305.506045,182.490184 304.197053,181.550952 L303.577375,181.097769 L302.925806,180.604917 C302.703162,180.433974 302.474994,180.256347 302.241094,180.071966 L301.621345,179.57842 L301.076398,179.136628 L300.510371,178.670838 L299.62179,177.927144 L298.685735,177.129417 L297.702179,176.277637 L296.671096,175.37178 L295.222341,174.079815 L294.080256,173.047695 L292.483402,171.587298 L290.801833,170.030582 L289.035484,168.377494 L286.708232,166.175532 L284.248288,163.822805 L282.952,162.569 L277.886,162.917 L276.939325,163.353424 L276.296008,163.653384 C275.874018,163.85101 275.45048,164.05151 275.025079,164.255035 L273.742975,164.874835 C273.528255,164.979697 273.312991,165.085353 273.097143,165.191822 L271.794743,165.840535 L270.476456,166.509652 C270.03417,166.736192 269.588922,166.966282 269.140397,167.200074 L267.784683,167.912705 C267.556988,168.033378 267.328395,168.155014 267.098866,168.277631 L265.710134,169.025266 L264.297035,169.797365 L262.857683,170.594829 C262.615499,170.729904 262.372142,170.866074 262.127574,171.003356 L260.645311,171.840562 L259.132084,172.70539 L257.58601,173.598741 L256.005202,174.521519 C255.738735,174.677818 255.470742,174.83538 255.201185,174.994225 L253.564744,175.962834 L251.88886,176.963126 L248.632877,178.934087 L224.078012,194.031467 L222.561745,194.951658 L220.412611,196.246936 C220.056774,196.460565 219.702098,196.673074 219.348562,196.884469 L217.240858,198.139541 L215.15949,199.368244 L213.103429,200.570929 C212.762804,200.769228 212.423191,200.966457 212.084568,201.162624 L210.064543,202.326938 C209.729796,202.518885 209.395996,202.709784 209.063122,202.899643 L207.076821,204.026371 C206.747566,204.212098 206.419194,204.396798 206.091684,204.580481 L204.136795,205.67041 L202.201563,206.736243 C201.880605,206.911894 201.560424,207.086555 201.240997,207.260234 L199.333325,208.290579 L197.44274,209.297703 C197.12901,209.463642 196.815949,209.628627 196.503535,209.792667 L194.636657,210.765614 C194.326749,210.9259 194.017447,211.085254 193.708727,211.243685 L191.863244,212.183242 C190.943833,212.647535 190.029288,213.103645 189.119033,213.551768 L187.30407,214.437422 L185.499517,215.302127 C185.199568,215.444518 184.900011,215.586051 184.600823,215.726733 L182.809959,216.560669 C172.684916,221.229098 162.937574,224.930564 152.726629,227.951318 C119.182071,237.874969 75.5475572,232.673961 21.7707516,212.553125 L20.138047,211.938836 L16.3968266,210.523467 L19.2275651,203.041026 L22.9687854,204.456395 C76.0098681,224.522767 118.523978,229.726924 150.457177,220.279969 C154.804195,218.99397 159.070938,217.576754 163.327717,216.003939 L165.030064,215.366456 C169.001745,213.859362 172.972914,212.213891 177.000738,210.410217 L178.730583,209.62747 C180.464231,208.834921 182.209784,208.012794 183.971743,207.159529 L185.739338,206.295826 C186.034904,206.150126 186.330968,206.003547 186.627549,205.856081 L188.413425,204.96059 L190.212738,204.043472 L192.026488,203.104381 C193.54424,202.312554 195.078072,201.497476 196.63059,200.658246 L198.502746,199.639519 L200.393839,198.597258 L202.30487,197.531117 L204.236838,196.440748 L206.190743,195.325806 L208.167586,194.185943 C208.499026,193.993869 208.831465,193.800743 209.164921,193.606557 L211.178045,192.428662 L213.216606,191.22498 L215.281604,189.995162 L217.37404,188.738863 L220.24447,186.998747 L244.449779,172.114896 L246.912067,170.619998 L248.645521,169.581298 L250.338753,168.574866 L251.993723,167.599772 L253.612393,166.655087 L255.196723,165.739884 L256.748674,164.853233 L257.723,164.302 L109.836986,174.462372 L109.28866,166.481185 L275.278,155.076 L275.003024,154.806618 C261.146026,152.327796 247.728869,149.062898 234.752347,145.011459 L231.832218,144.094749 L230.243195,143.589387 L228.262252,142.948778 L226.847063,142.481415 L225.294484,141.957217 L223.944108,141.490522 L221.793662,140.726424 L218.899917,139.662658 L216.651128,138.814798 L212.985249,137.407659 L203.402935,133.667626 L199.464558,132.126734 L197.422912,131.338857 L195.490668,130.603953 L194.251215,130.139226 L192.446998,129.473623 L191.270268,129.047187 L189.526192,128.427154 L188.366928,128.023188 L186.615107,127.424993 L185.339245,126.998338 L183.959271,126.545841 C183.728084,126.470817 183.496283,126.395985 183.263844,126.321341 L181.861341,125.875687 L180.442279,125.434292 L179.00543,124.99691 L177.549561,124.5633 L176.073442,124.133216 L174.575843,123.706416 C174.324385,123.635543 174.07198,123.564796 173.818604,123.494171 L172.286477,123.071839 L170.729794,122.652181 L169.147322,122.234953 L167.537833,121.819912 C167.267265,121.750908 166.99552,121.681984 166.722572,121.613136 L165.070248,121.200919 L163.38783,120.790279 L161.674086,120.380973 L159.927786,119.972757 L158.1477,119.565388 C157.848135,119.49755 157.547111,119.429738 157.244603,119.361945 L155.411529,118.955389 L153.541593,118.54907 L151.633563,118.142745 L149.686209,117.73617 L147.6983,117.329102 L145.668606,116.921296 C145.326773,116.853254 144.983148,116.78517 144.637705,116.717041 C143.009838,116.395987 141.347091,116.085394 139.649475,115.785264 L137.595597,115.430132 C134.834779,114.963319 131.984702,114.523299 129.045405,114.110087 L126.824204,113.805205 C122.348346,113.205496 117.671763,112.666117 112.794585,112.187126 L110.33928,111.952663 C109.515273,111.876187 108.685695,111.801388 107.850546,111.728266 L105.328386,111.513938 L102.772805,111.309678 C102.344089,111.276474 101.913982,111.24369 101.482482,111.211325 L98.8767739,111.022173 L96.237653,110.843094 C95.7950153,110.814087 95.3509855,110.7855 94.9055638,110.757333 L92.21633,110.593367 C91.7653406,110.566879 91.3129593,110.540811 90.8591863,110.515163 L88.1198477,110.366314 L85.3471102,110.227546 C84.8822043,110.205258 84.4159069,110.18339 83.9482181,110.161942 L81.1253892,110.038296 C80.6521352,110.018528 80.1774898,109.999181 79.7014534,109.980254 L76.828541,109.871735 C75.8653393,109.837243 74.8965735,109.804431 73.9222442,109.773302 L70.9825665,109.684956 L68.0095114,109.606701 C67.511221,109.594499 67.0115399,109.582718 66.5104684,109.571357 L63.487354,109.508239 L60.4308711,109.455214 L57.3410234,109.412285 L54.2178143,109.379452 C53.6944996,109.374821 53.1697949,109.370611 52.6437004,109.366822 L49.4704561,109.349138 C48.9388026,109.347032 48.4057594,109.345347 47.8713266,109.344083 L44.6480551,109.34155 C43.5680732,109.34239 42.4825335,109.344913 41.3914366,109.349121 L38.1014746,109.366796 L34.7781727,109.394578 C34.221511,109.40005 33.6634602,109.405944 33.1040205,109.412259 L29.7307155,109.455204 L26.3240795,109.508258 L22.8841162,109.571425 L19.410829,109.644706 L15.9042216,109.728102 L12.3642975,109.821614 L8.79106031,109.925245 L5.18451356,110.038997 L1.18666246,110.170094 L0.924467716,102.174392 L4.92231882,102.043294 L8.56213169,101.928507 L12.1686407,101.82395 L15.7418494,101.729625 C16.3346093,101.714757 16.9259819,101.700316 17.5159672,101.686301 L21.0392321,101.607328 L24.5292056,101.538592 C25.686982,101.517386 26.8392104,101.497887 27.9858914,101.480094 L31.4092928,101.431835 L34.7994137,101.393818 L38.1562574,101.366044 C38.7129584,101.362269 39.2682731,101.35892 39.8222014,101.355999 L43.1291361,101.343592 C43.6775195,101.342378 44.2245166,101.341231 44.7701277,101.341231 L48.0271615,101.344196 L51.2509325,101.357409 C52.3199794,101.363522 53.3834831,101.371344 54.4414442,101.380874 L57.5987002,101.414591 C58.1221384,101.421065 58.6441911,101.427967 59.1648584,101.435295 L62.2722376,101.484394 C62.7873635,101.493432 63.3011041,101.502897 63.8134594,101.51279 L66.8709698,101.577274 C67.3777846,101.588877 67.8832144,101.600906 68.3872592,101.613364 L71.3949088,101.693237 L74.3693223,101.783373 C74.8622885,101.79925 75.3538699,101.815556 75.8440667,101.832289 L78.7686328,101.937819 L81.6599718,102.053615 C82.1390929,102.073769 82.6168297,102.094352 83.0931822,102.115363 L85.9346872,102.246559 C86.876319,102.292003 87.8124144,102.339158 88.742974,102.388026 L91.5180461,102.539763 L94.2599071,102.701773 L96.9685607,102.874057 C97.4172358,102.903628 97.8645275,102.933626 98.3104358,102.964053 L100.969285,103.151752 L103.594935,103.349729 L106.18739,103.557986 C106.6167,103.593552 107.044627,103.629546 107.471171,103.66597 L110.013841,103.889649 C110.434853,103.927786 110.854483,103.966352 111.27273,104.005346 L113.765622,104.244452 C115.829206,104.447993 117.858227,104.662249 119.852694,104.887224 L122.229468,105.162339 C123.409564,105.30247 124.57722,105.44646 125.732441,105.59431 L128.026302,105.895159 L130.287004,106.206303 C131.409065,106.364449 132.518693,106.526458 133.61589,106.692328 L135.793709,107.029219 C139.395784,107.599289 142.859747,108.212282 146.185672,108.868232 L148.275399,109.284223 L150.322792,109.699565 C150.660565,109.768748 150.996625,109.837915 151.330998,109.90707 L153.317202,110.321899 C153.644931,110.391028 153.971024,110.460155 154.295508,110.529286 L156.223295,110.944158 L158.113679,111.359367 L159.967891,111.775159 C160.273981,111.844519 160.578614,111.913915 160.881818,111.98335 L162.684084,112.400478 L164.453259,112.818805 L166.190576,113.238577 C166.477542,113.308674 166.763233,113.37884 167.047673,113.449083 L168.739513,113.871486 L170.402576,114.29595 L172.038095,114.722723 L173.6473,115.152051 L175.231426,115.58418 L176.791703,116.019356 L178.329365,116.457826 L179.845644,116.899837 C180.096644,116.973815 180.346804,117.04795 180.59615,117.122248 L182.082665,117.570032 L183.550878,118.021973 L185.002021,118.478317 L186.437326,118.93931 L187.858027,119.4052 L189.172269,119.844692 L190.377772,120.254644 L192.168639,120.876089 L193.960684,121.513038 L195.778707,122.174136 L197.647507,122.868026 L199.591883,123.603354 L202.344811,124.66319 L213.71704,129.110568 L217.289753,130.493493 L220.677058,131.78439 L223.057952,132.671434 L225.506405,133.557643 L226.824668,134.021443 L228.421045,134.569715 L229.763041,135.019707 L231.667496,135.643483 L233.178187,136.128533 L236.525163,137.183943 L237.13655,137.374995 C246.140988,140.186298 255.367322,142.610283 264.815837,144.646781 L260.492875,140.285783 L255.369227,135.08586 L251.54875,131.189473 L249.192113,128.778729 C198.007359,76.3617366 152.026286,57.0447423 111.06235,70.0630476 L109.822554,70.4674384 L106.029232,71.7365762 L103.490957,64.1499328 L107.284278,62.8807951 C152.021248,47.9130751 201.295854,68.2786961 254.915845,123.189552 L256.555,124.863 L255.980005,124.16047 L255.17525,123.165491 L254.364834,122.152712 L253.54786,121.121079 L252.308138,119.535971 L251.470842,118.452591 L250.623846,117.346668 L249.766254,116.217148 L248.897166,115.062977 L247.570019,113.283196 L246.668268,112.062788 L245.287919,110.178712 L244.347895,108.88548 L242.41631,106.205042 L240.410026,103.392278 L237.786184,99.6773946 L228.685992,86.647267 L227.52554,84.9923391 L225.275379,81.8020932 L223.645704,79.5094267 L222.061932,77.2980703 L220.520672,75.1640462 L219.018535,73.1033767 L217.552131,71.1120843 L216.592707,69.8211344 L215.646653,68.5580723 L214.250445,66.7131907 L213.333424,65.5146918 L211.976058,63.7611303 L211.081793,62.6198285 L210.194872,61.499343 L208.876066,59.8550673 L208.003113,58.7814664 L207.13399,57.7245568 L206.267693,56.68316 L205.403216,55.6560973 L204.539556,54.6421903 L203.675709,53.6402603 L202.810669,52.6491287 L201.943433,51.667617 L201.072997,50.6945466 L200.198355,49.7287389 L199.318505,48.7690154 L198.432441,47.8141975 L197.986765,47.3382598 L197.986765,47.3382598 C185.770626,34.3316147 173.170335,24.6000449 159.002263,17.8041861 C126.352595,2.14344242 76.1034088,5.19361057 8.36697599,27.3191343 L6.30900424,27.9954439 L2.51117609,29.2510319 L0,21.6553756 L3.79782815,20.3997876 C74.3536877,-2.92646365 127.203216,-6.3212442 162.462119,10.5910454 Z M298.328526,161.513777 L293.749,161.828 L293.785362,161.862096 L295.416264,163.395614 L296.974012,164.846499 L297.985416,165.779373 L302.189778,162.869766 C300.935773,162.525284 299.64761,162.072782 298.328526,161.513777 Z"/>
    <linearGradient id="hero_image@1x-b" x1="-12.995%" x2="85.014%" y1="49.05%" y2="47.068%">
      <stop offset="0%" stop-color="#171717"/>
      <stop offset="50.389%" stop-color="#171717" stop-opacity="0"/>
      <stop offset="100%" stop-color="#171717"/>
    </linearGradient>
    <path id="hero_image@1x-d" d="M221.460512,14.4190583 C242.084066,24.2989229 260.314952,38.3614694 277.834915,56.9917079 L279.088372,58.33253 L280.331628,59.6784639 L281.56609,61.0311495 L282.793163,62.3922268 L284.014253,63.7633356 L285.230767,65.1461159 L286.444111,66.5422077 L287.655689,67.9532508 L288.86691,69.3808852 C289.068828,69.6202979 289.27079,69.8604704 289.472825,70.1014366 L290.686143,71.5570328 L291.902618,73.0333201 L293.123656,74.5319385 L294.350662,76.0545278 L295.585042,77.6027281 L297.453516,79.9766363 L298.712484,81.5960385 L299.983747,83.2467915 L301.268712,84.930535 L302.568785,86.648909 L303.885371,88.4035536 L305.219876,90.1961085 L306.573707,92.0282137 L307.94827,93.9015092 L309.34497,95.8176349 L310.765214,97.7782308 L312.942799,100.806093 L314.428053,102.885039 L316.709744,106.098114 L319.060225,109.429696 L331.578462,127.332224 L333.754196,130.426346 L336.55001,134.376157 L339.234336,138.135438 L340.537655,139.947125 L342.447413,142.583647 L344.306466,145.127154 L345.519642,146.77348 L347.303079,149.172447 L348.46955,150.726784 L350.18849,152.994321 L351.315668,154.465406 L352.981228,156.614622 L354.620096,158.699136 L355.699822,160.055198 L356.77065,161.386 L357.833766,162.69294 L358.890356,163.977417 L359.941604,165.240827 L360.988699,166.484571 L362.032824,167.710046 L363.075166,168.91865 L364.116911,170.111782 L365.159246,171.29084 L366.203354,172.457222 L367.775439,174.186087 L368.829173,175.326897 L369.888832,176.459925 L370.955603,177.58657 L372.726019,179.432133 C373.018872,179.735269 373.310617,180.03618 373.601255,180.33487 L375.331787,182.100382 L377.035746,183.812781 C381.262437,188.027555 385.240119,191.746292 388.96969,194.983251 L390.448287,196.252374 C393.265475,198.643007 395.936007,200.749858 398.460292,202.579411 C417.049128,197.153102 429.453584,198.738501 435.526645,208.339163 L439,211.269298 L437.924,212.542 L438.741439,213.994171 L434.790737,216.21387 C428.907703,222.601771 420.940629,224.301103 411.601797,221.645356 L414.744634,224.947207 L416.830716,227.165633 L417.808351,228.220317 L419.193875,229.736106 L420.064037,230.703474 L420.891727,231.637113 L421.677239,232.537708 L422.420869,233.405943 L423.122913,234.242503 L423.783665,235.048073 L424.403421,235.823338 L424.982476,236.568981 L425.521125,237.285687 C425.607549,237.402765 425.692302,237.518665 425.77539,237.633403 L426.253983,238.307988 C426.330435,238.418131 426.405234,238.527139 426.478387,238.635028 L426.89759,239.269032 L427.277568,239.876837 L427.618616,240.459128 C427.940298,241.028891 428.204028,241.56141 428.411136,242.059765 L428.599418,242.546846 C428.768924,243.022768 428.88225,243.465553 428.940724,243.878283 C429.327332,246.607078 427.852428,249.358821 423.642915,250.546293 C420.861205,251.330993 418.452264,251.022994 415.828434,250.193532 C414.074402,249.639036 412.023226,248.734324 409.567279,247.452528 L408.404631,246.834057 L407.18215,246.161448 C406.764423,245.928157 406.336331,245.685745 405.897483,245.434115 L404.734704,244.760559 L403.712267,244.157633 L402.650281,243.521957 L400.983113,242.507017 L399.226874,241.418337 L397.381515,240.255889 L395.446984,239.019642 L392.728812,237.256461 L390.586019,235.847899 L387.589981,233.854854 L384.435,231.730361 L381.120955,229.474347 L376.754534,226.469269 L373.579,224.26 L373.153198,224.466968 C372.860502,224.609731 372.567065,224.753576 372.272832,224.898526 L370.497462,225.781709 L368.700437,226.692671 C368.097534,227.001091 367.490593,227.314345 366.879187,227.632639 L365.031142,228.602842 C364.720759,228.76713 364.409153,228.93273 364.09627,229.099666 L362.203217,230.117525 L360.276949,231.16869 L358.314894,232.254389 C357.98476,232.438285 357.653028,232.623672 357.319645,232.810573 L355.299095,233.950378 L353.236338,235.127787 L351.128803,236.344031 L348.973923,237.600337 C348.610688,237.813128 348.245373,238.027639 347.877925,238.243897 L345.647209,239.562599 L343.362724,240.924434 L338.924326,243.607776 L305.45232,264.161932 L303.385418,265.414716 L300.455823,267.178159 C299.970763,267.469001 299.487286,267.758319 299.005363,268.04612 L296.132243,269.754823 L293.295021,271.427627 L290.492299,273.065009 C290.027976,273.334981 289.565031,273.603496 289.103437,273.870566 L286.349837,275.455707 C285.893525,275.717031 285.438505,275.976929 284.984748,276.23541 L282.277118,277.769381 C281.828293,278.022237 281.380673,278.273695 280.934227,278.523768 L278.269417,280.007639 L275.631402,281.458706 C275.193888,281.697843 274.757432,281.935634 274.322005,282.172087 L271.721558,283.574839 L269.144405,284.945977 C268.716742,285.171892 268.289992,285.396509 267.864126,285.619839 L265.319288,286.944447 C264.896836,287.162666 264.47521,287.379618 264.054379,287.595311 L261.538705,288.87446 C260.285407,289.506567 259.038745,290.127533 257.797929,290.737624 L255.323859,291.943388 L252.863979,293.120631 C252.455104,293.314487 252.046762,293.507176 251.638923,293.698705 L249.197704,294.834058 C235.395735,301.189838 222.108629,306.229157 208.189562,310.341728 C162.463242,323.852169 102.98278,316.771316 29.6768368,289.378033 L27.4512127,288.541717 L22.3513618,286.614778 L26.2100877,276.427895 L31.3099386,278.354833 C103.61298,305.673966 161.56616,312.759107 205.095954,299.897658 C211.0216,298.146848 216.837817,296.217397 222.640453,294.076104 L224.96101,293.208211 C230.375014,291.156395 235.78832,288.916188 241.278854,286.460595 L243.636896,285.394933 C246.00012,284.315927 248.379574,283.196652 250.781392,282.034983 L253.190892,280.859105 C253.593793,280.660744 253.997373,280.461185 254.401659,280.26042 L256.836078,279.041263 L259.288814,277.792663 L261.761231,276.514148 C263.830157,275.436124 265.921004,274.326446 268.03732,273.183886 L270.589353,271.796952 L273.1672,270.377977 L275.772224,268.926491 L278.40579,267.442022 L281.069259,265.924096 L283.763996,264.372242 C284.2158,264.110746 284.668963,263.847817 285.123515,263.583444 L287.867708,261.979813 L290.646576,260.341072 L293.461482,258.666751 L296.31379,256.956378 L300.226621,254.587316 L333.222129,234.323867 L336.578601,232.288655 L338.941561,230.874529 L341.249693,229.504333 L343.505669,228.176802 L345.712161,226.890672 L347.871843,225.644679 L349.987388,224.437558 L352.061469,223.268044 L353.866,222.262 L10.1205631,238 L9,227.131144 L355.251,211.28 L354.581555,210.800693 L347.695279,205.834547 L346.101127,204.678613 C337.261234,202.511119 328.561836,200.093005 320.003057,197.424201 L316.022479,196.176157 L313.8564,195.488137 L311.156074,194.615987 L309.226957,193.979701 L307.110556,193.266038 L305.269788,192.630661 L302.338404,191.590389 L298.393791,190.142137 L295.328351,188.987827 L290.331202,187.072093 L277.269054,181.980268 L271.900449,179.882439 L269.117376,178.809793 L266.483434,177.809265 L264.793872,177.176569 L262.33445,176.270391 L260.730389,175.689825 L258.352949,174.845688 L256.772695,174.295712 L254.384698,173.481307 L252.645505,172.900443 L250.764391,172.284395 C250.449247,172.182254 250.133268,172.080375 249.816418,171.978752 L247.904593,171.372022 L245.970198,170.771089 L244.011553,170.175621 L242.026983,169.585287 L240.01481,168.999755 L237.973355,168.418692 C237.630579,168.322203 237.286514,168.225885 236.941123,168.129734 L234.852602,167.554754 L232.730606,166.983416 L230.573458,166.415386 L228.37948,165.850334 C228.010654,165.756388 227.640225,165.662552 227.268155,165.56882 L225.015787,165.007611 L222.722396,164.44855 L220.386303,163.891306 L218.005832,163.335545 L215.579304,162.780937 C215.170952,162.68858 214.760611,162.596257 214.348245,162.503962 L211.849489,161.950461 L209.300482,161.397283 L206.699548,160.844096 L204.045009,160.29057 L201.335187,159.736371 L198.568406,159.181168 C198.102436,159.088532 197.634022,158.995841 197.163131,158.903087 C194.944102,158.465993 192.677526,158.043139 190.363417,157.634531 L187.563671,157.151039 C183.800256,156.515503 179.915169,155.916442 175.908461,155.35388 L172.880627,154.938802 C166.779354,154.122335 160.404463,153.388004 153.756129,152.735886 L150.409176,152.416679 C149.285929,152.312561 148.155089,152.210727 147.016654,152.111177 L143.578567,151.819381 L140.094922,151.541295 C139.510518,151.496089 138.924216,151.451455 138.336016,151.407393 L134.784041,151.149874 L131.186519,150.906069 C130.583137,150.866578 129.977857,150.827658 129.370679,150.78931 L125.704846,150.566081 C125.090079,150.530019 124.473415,150.49453 123.854853,150.459611 L120.120719,150.256963 L116.341057,150.068038 C115.70732,150.037694 115.071686,150.007922 114.434155,149.978722 L110.586211,149.810386 C109.941094,149.783474 109.294081,149.757134 108.645171,149.731366 L104.728955,149.583623 C103.415965,149.536664 102.095391,149.491994 100.767232,149.449612 L96.7600052,149.329336 L92.7072802,149.222796 C92.0280347,149.206184 91.3468937,149.190144 90.6638573,149.174677 L86.5428937,149.088746 L82.3764439,149.016556 L78.1645127,148.95811 L73.9071051,148.91341 C73.1937477,148.907106 72.4784956,148.901374 71.7613491,148.896216 L67.4357357,148.872139 C66.7110114,148.869272 65.9843926,148.866979 65.2558797,148.865258 L60.8620717,148.86181 C59.3898925,148.862953 57.9101373,148.866388 56.4228066,148.872116 L51.9380894,148.89618 L47.4079248,148.934003 C46.6491104,148.941454 45.8884025,148.949478 45.1258013,148.958075 L40.5274749,149.016541 L35.8837134,149.088772 L31.1945216,149.17477 L26.4599043,149.274537 L21.6798665,149.388075 L16.854413,149.515387 L11.9835487,149.656475 L7.06727841,149.81134 L1.61760093,149.989821 L1.26018973,139.104163 L6.70986721,138.925682 L11.6714843,138.769406 L16.5877031,138.627058 L21.4585285,138.498641 C22.2665502,138.478399 23.0726808,138.458738 23.8769202,138.439657 L28.6796647,138.332141 L33.4370281,138.238561 C35.0152528,138.20969 36.5859149,138.183143 38.149015,138.158919 L42.8156305,138.093218 L47.4368794,138.04146 L52.0127666,138.003648 C52.7716346,137.998508 53.5286127,137.993949 54.283701,137.989971 L58.7915547,137.97308 C59.5390844,137.971428 60.2847245,137.969866 61.0284751,137.969866 L65.4683062,137.973902 L69.8627951,137.991892 C71.3200682,138.000214 72.769785,138.010862 74.2119465,138.023837 L78.5157653,138.069741 C79.229291,138.078555 79.9409281,138.087951 80.6506766,138.097928 L84.8865058,138.164774 C85.5887004,138.177078 86.2890068,138.189964 86.9874249,138.203433 L91.1552753,138.291224 C91.8461408,138.30702 92.5351183,138.323398 93.2222078,138.340358 L97.3220904,138.449101 L101.376667,138.571814 C102.048655,138.593431 102.718755,138.61563 103.386967,138.638411 L107.373595,138.782084 L111.314928,138.939732 C111.968043,138.967172 112.619271,138.995194 113.268612,139.023798 L117.142014,139.202415 C118.425601,139.264284 119.701641,139.328483 120.970135,139.395012 L124.752979,139.601594 L128.490551,139.82216 L132.182857,140.056715 C132.794469,140.096973 133.404196,140.137814 134.012036,140.179238 L137.636451,140.434779 L141.215611,140.704312 L144.74952,140.987841 C145.334735,141.036262 145.918064,141.085267 146.499508,141.134855 L149.965553,141.439381 C150.539457,141.491302 151.111476,141.543806 151.68161,141.596894 L155.0798,141.922423 C157.892778,142.199531 160.658641,142.491228 163.377402,142.797517 L166.617306,143.17207 C168.225955,143.362849 169.817648,143.558883 171.392389,143.760172 L174.51927,144.169759 L177.600949,144.593363 C179.130489,144.808669 180.64308,145.029233 182.138726,145.255056 L185.107423,145.713713 C190.017598,146.489828 194.739505,147.32438 199.273246,148.217416 L202.12186,148.783762 L204.912767,149.349225 C205.373203,149.443413 205.831304,149.537579 206.287106,149.631729 L208.994603,150.196494 C209.441347,150.290609 209.885861,150.384721 210.328182,150.478839 L212.956048,151.043662 L215.532928,151.608943 L218.060501,152.175018 C218.477747,152.269448 218.893009,152.363926 219.306322,152.458457 L221.763083,153.026351 L224.174737,153.595878 L226.542964,154.167373 C226.934143,154.262804 227.323582,154.358332 227.711317,154.453963 L230.017552,155.029038 L232.284559,155.606921 L234.514019,156.187946 L236.70761,156.772449 L238.867013,157.360766 L240.993909,157.953232 L243.089975,158.550183 L245.156893,159.151953 C245.499044,159.252669 245.84005,159.353599 246.179947,159.454751 L248.206292,160.064382 L250.207689,160.679672 L252.185817,161.300956 L254.142356,161.928571 L256.078986,162.562851 L257.870498,163.161192 L259.513781,163.719317 L261.955004,164.565376 L264.397834,165.432543 L266.876075,166.332587 L269.423533,167.277276 L272.074013,168.27838 L275.82667,169.721282 L291.328744,175.776113 L296.198893,177.658881 L300.816304,179.416359 L304.061823,180.624014 L307.399436,181.830533 L309.196429,182.461969 L311.372532,183.208407 L313.201877,183.821043 L315.797938,184.670276 L317.857239,185.330642 L321.076,186.344 L317.955903,184.040337 L310.787877,178.722829 L306.366325,175.43282 C210.332852,103.897906 124.062589,77.5354718 47.205542,95.3019118 L44.8794215,95.8537952 L37.7623441,97.5858225 L33,87.2321212 L40.1170774,85.5000939 C124.053136,65.0732339 216.502767,92.8667582 317.105262,167.805117 L327.727349,175.695932 L337.806426,183.139271 L346.17959,189.284768 L354.135935,195.087018 L354.761848,195.541802 C362.603863,197.347484 370.559859,198.954605 378.629925,200.363114 L377.304142,199.156286 C376.551552,198.466054 375.792517,197.760664 375.027008,197.040112 L373.487348,195.578791 L371.930371,194.077031 C370.886603,193.062377 369.831255,192.020758 368.764259,190.952166 L367.155019,189.329046 L365.528254,187.665459 L363.883911,185.961398 L362.500017,184.509735 L361.396235,183.337003 L360.30003,182.157971 L359.210179,180.971205 L358.125458,179.77527 L357.044644,178.56873 L355.966514,177.350152 L354.889843,176.1181 L353.274898,174.241621 L352.196524,172.969608 L351.115329,171.6791 L350.030087,170.368662 L348.939576,169.036859 L347.842572,167.682257 L346.737852,166.30342 L345.624193,164.898914 L343.934265,162.740887 L342.792903,161.265932 L341.638319,159.760285 L340.46929,158.222513 L339.284592,156.651181 L337.475489,154.228118 L336.246266,152.566608 L334.364641,150.001553 L333.083246,148.240898 L330.450202,144.591646 L327.715332,140.76224 L324.138638,135.704655 L311.733696,117.964936 L310.151823,115.711853 L307.084513,111.368529 L304.863019,108.247204 L302.704097,105.236578 L300.603126,102.331235 L298.555486,99.5257604 L296.556555,96.8147379 L295.248714,95.0571889 L293.959099,93.3376075 L292.055856,90.8259143 L290.805817,89.1942316 L288.955521,86.8068653 L287.736502,85.253053 L286.527494,83.7275808 L284.729761,81.4890003 L283.539795,80.0273586 L282.355048,78.5884411 L281.174153,77.1706432 L279.99574,75.7723604 L278.818441,74.3919882 L277.640886,73.027922 L276.461706,71.6785571 L275.279532,70.3422892 L274.092995,69.0175136 L272.900726,67.7026258 L271.701356,66.3960211 L270.493516,65.0960951 C270.291428,64.8799082 270.088929,64.6639327 269.885992,64.4481352 C253.233543,46.7403862 236.057434,33.4914512 216.744203,24.2393065 C172.237753,2.9181653 103.74049,7.07078201 11.4054574,37.1933245 L8.60012977,38.1140785 L3.42311392,39.8234846 L0,29.4824647 L5.17701585,27.7730587 C101.355355,-3.98420063 173.397278,-8.60598599 221.460512,14.4190583 Z M406.570607,219.85016 L390.065,220.605 L393.092653,222.675437 L396.015319,224.6555 L397.912928,225.928619 L408.472801,220.611938 C407.84418,220.376375 407.210049,220.122418 406.570607,219.85016 Z"/>
    <linearGradient id="hero_image@1x-e" x1="24.319%" x2="93.863%" y1="49.257%" y2="60.852%">
      <stop offset="0%" stop-color="#171717"/>
      <stop offset="50.389%" stop-color="#171717" stop-opacity="0"/>
      <stop offset="100%" stop-color="#171717"/>
    </linearGradient>
    <rect id="hero_image@1x-h" width="46" height="46" x="0" y="0" rx="6"/>
    <filter id="hero_image@1x-g" width="365.2%" height="365.2%" x="-132.6%" y="-128.3%" filterUnits="objectBoundingBox">
      <feOffset dy="2" in="SourceAlpha" result="shadowOffsetOuter1"/>
      <feGaussianBlur in="shadowOffsetOuter1" result="shadowBlurOuter1" stdDeviation="20"/>
      <feColorMatrix in="shadowBlurOuter1" values="0 0 0 0 0   0 0 0 0 0   0 0 0 0 0  0 0 0 0.238706362 0"/>
    </filter>
    <rect id="hero_image@1x-j" width="46" height="46" x="0" y="0" rx="6"/>
    <filter id="hero_image@1x-i" width="365.2%" height="365.2%" x="-132.6%" y="-128.3%" filterUnits="objectBoundingBox">
      <feOffset dy="2" in="SourceAlpha" result="shadowOffsetOuter1"/>
      <feGaussianBlur in="shadowOffsetOuter1" result="shadowBlurOuter1" stdDeviation="20"/>
      <feColorMatrix in="shadowBlurOuter1" values="0 0 0 0 0   0 0 0 0 0   0 0 0 0 0  0 0 0 0.238706362 0"/>
    </filter>
    <rect id="hero_image@1x-l" width="46" height="46" x="0" y="0" rx="6"/>
    <filter id="hero_image@1x-k" width="365.2%" height="365.2%" x="-132.6%" y="-128.3%" filterUnits="objectBoundingBox">
      <feOffset dy="2" in="SourceAlpha" result="shadowOffsetOuter1"/>
      <feGaussianBlur in="shadowOffsetOuter1" result="shadowBlurOuter1" stdDeviation="20"/>
      <feColorMatrix in="shadowBlurOuter1" values="0 0 0 0 0   0 0 0 0 0   0 0 0 0 0  0 0 0 0.238706362 0"/>
    </filter>
    <rect id="hero_image@1x-n" width="46" height="46" x="0" y="0" rx="6"/>
    <filter id="hero_image@1x-m" width="365.2%" height="365.2%" x="-132.6%" y="-128.3%" filterUnits="objectBoundingBox">
      <feOffset dy="2" in="SourceAlpha" result="shadowOffsetOuter1"/>
      <feGaussianBlur in="shadowOffsetOuter1" result="shadowBlurOuter1" stdDeviation="20"/>
      <feColorMatrix in="shadowBlurOuter1" values="0 0 0 0 0   0 0 0 0 0   0 0 0 0 0  0 0 0 0.238706362 0"/>
    </filter>
    <rect id="hero_image@1x-p" width="46" height="46" x="0" y="0" rx="6"/>
    <filter id="hero_image@1x-o" width="365.2%" height="365.2%" x="-132.6%" y="-128.3%" filterUnits="objectBoundingBox">
      <feOffset dy="2" in="SourceAlpha" result="shadowOffsetOuter1"/>
      <feGaussianBlur in="shadowOffsetOuter1" result="shadowBlurOuter1" stdDeviation="20"/>
      <feColorMatrix in="shadowBlurOuter1" values="0 0 0 0 0   0 0 0 0 0   0 0 0 0 0  0 0 0 0.238706362 0"/>
    </filter>
  </defs>
  <g fill="none" fill-rule="evenodd" transform="translate(40)">
    <g transform="translate(31.447 71.802)">
      <mask id="hero_image@1x-c" fill="#fff">
        <use xlink:href="#hero_image@1x-a"/>
      </mask>
      <use fill="#FFF" fill-opacity=".181" fill-rule="nonzero" xlink:href="#hero_image@1x-a"/>
      <rect width="296" height="290" x="5.553" y="-35.802" fill="url(#hero_image@1x-b)" mask="url(#hero_image@1x-c)"/>
    </g>
    <g transform="matrix(-1 0 0 1 753 0)">
      <mask id="hero_image@1x-f" fill="#fff">
        <use xlink:href="#hero_image@1x-d"/>
      </mask>
      <use fill="#FFF" fill-opacity=".181" fill-rule="nonzero" xlink:href="#hero_image@1x-d"/>
      <rect width="492" height="395" x="-82" y="-49" fill="url(#hero_image@1x-e)" mask="url(#hero_image@1x-f)"/>
    </g>
    <g transform="translate(0 159)">
      <use fill="#000" filter="url(#hero_image@1x-g)" xlink:href="#hero_image@1x-h"/>
      <use fill="#404040" xlink:href="#hero_image@1x-h"/>
    </g>
    <path fill="#FFF" fill-rule="nonzero" d="M36.4315522,178.219715 C34.3303182,176.147228 30.918261,176.147228 28.7722602,178.219715 L20.1966511,186.690659 C19.6702798,187.218303 19.6702798,188.065559 20.1966511,188.593202 C20.7310394,189.111417 21.5872282,189.111417 22.1216165,188.593202 L30.6972257,180.122258 C31.7491517,179.083722 33.4543476,179.084031 34.5058873,180.122949 C35.557427,181.161867 35.5571139,182.845976 34.5051878,183.884512 L26.0596817,192.222817 C27.1102988,193.259061 28.8170269,193.259061 29.8690429,192.222817 L36.3881846,185.784292 C38.5299884,183.664829 38.5299884,180.294965 36.4315522,178.219715 L36.4315522,178.219715 Z M33.5441041,181.028626 C33.0097157,180.510411 32.153527,180.510411 31.6191386,181.028626 L23.0379337,189.542401 C21.9873166,190.578645 20.2819875,190.578645 19.2327694,189.542401 C18.7067614,189.02428 17.831014,189.02428 17.306405,189.542401 C16.781796,190.060523 16.781796,190.926822 17.306405,191.442181 C19.4076391,193.517431 22.8210953,193.517431 24.965697,191.442181 L33.5427051,182.974 C34.0673142,182.413047 34.0673142,181.546747 33.5441041,181.028626 Z M30.6972257,172.560445 C28.5973906,170.485194 25.1839344,170.485194 23.0379337,172.560445 L14.4609256,181.028626 C13.9356385,181.555632 13.9356385,182.401399 14.4609256,182.928405 C14.9948659,183.449012 15.8533496,183.449012 16.38729,182.928405 L25.0160595,174.460224 C26.0713483,173.424123 27.7757277,173.424123 28.8310164,174.460224 C29.3654048,174.978439 30.2215935,174.978439 30.7559819,174.460224 C31.2484149,173.899271 31.2484149,173.078566 30.7224069,172.560445 L30.6972257,172.560445 L30.6972257,172.560445 Z M27.8111765,175.366592 C27.2780248,174.845398 26.4193627,174.845398 25.886211,175.366592 L17.3092029,183.883131 C16.2548839,184.916327 14.5541608,184.916327 13.4998418,183.883131 C12.4491103,182.843724 12.4491103,181.160283 13.4998418,180.120876 L21.9453479,171.777045 C20.8927706,170.740985 19.189963,170.740985 18.1373857,171.777045 L11.5748763,178.219715 C9.47504122,180.294965 9.47504122,183.664829 11.5748763,185.784292 C13.6747115,187.859542 17.0867687,187.859542 19.2341684,185.784292 L27.8083786,177.313348 C28.3357855,176.749631 28.3357855,175.886095 27.8083786,175.367973 L27.8111765,175.367973 L27.8111765,175.366592 Z"/>
    <g transform="translate(24 257)">
      <use fill="#000" filter="url(#hero_image@1x-i)" xlink:href="#hero_image@1x-j"/>
      <use fill="#404040" xlink:href="#hero_image@1x-j"/>
      <path fill="#FFF" fill-rule="nonzero" d="M15.3108108,14.5591347 C16.1216216,15.215871 16.4247104,15.1657973 17.9478764,15.0637239 L32.2972973,14.2047666 C32.6023166,14.2047666 32.3494208,13.9023983 32.2471042,13.8523246 L29.8629344,12.1324842 C29.4073359,11.7781162 28.7992278,11.3736744 27.6332046,11.4757478 L13.7374517,12.4868522 C13.2316602,12.5369259 13.1293436,12.7892205 13.3320463,12.9914414 L15.3108108,14.5591347 Z M16.1718147,17.8948161 L16.1718147,32.9573821 C16.1718147,33.7662656 16.5772201,34.0705599 17.4903475,34.0204861 L33.2625483,33.1095293 C34.1737452,33.0594555 34.2760618,32.5028667 34.2760618,31.8461303 L34.2760618,16.8837117 C34.2760618,16.2289013 34.023166,15.8726074 33.465251,15.9226811 L16.9826255,16.8837117 C16.3745174,16.9337855 16.1718147,17.2380797 16.1718147,17.8948161 Z M31.7413127,18.7036996 C31.8416988,19.158215 31.7413127,19.6127305 31.2837838,19.6647302 L30.523166,19.8149514 L30.523166,30.9351734 C29.8648649,31.2895414 29.2548263,31.4936882 28.7471042,31.4936882 C27.9362934,31.4936882 27.7335907,31.2394677 27.1254826,30.4806579 L22.1544402,22.6961173 L22.1544402,30.2283633 L23.7277992,30.5827313 C23.7277992,30.5827313 23.7277992,31.4917623 22.4594595,31.4917623 L18.96139,31.6939832 C18.8590734,31.4917623 18.96139,30.9871731 19.3166023,30.8850997 L20.2277992,30.634731 L20.2277992,20.6739086 L18.9633205,20.5737611 C18.8610039,20.1192457 19.1138996,19.4625093 19.8243243,19.4105097 L23.5772201,19.160141 L28.7509653,27.044829 L28.7509653,20.0691719 L27.4324324,19.9170248 C27.3301158,19.3604359 27.7355212,18.9559942 28.2432432,18.9059204 L31.7432432,18.7036996 L31.7413127,18.7036996 Z M12.5714286,11.1213798 L27.0250965,10.0602017 C28.7992278,9.90612869 29.2548263,10.010128 30.3706564,10.8190115 L34.984556,14.0545454 C35.7471042,14.6092084 36,14.7613555 36,15.3680181 L36,33.1095293 C36,34.222707 35.5945946,34.8813693 34.1737452,34.9795909 L17.3899614,35.9906952 C16.3243243,36.0426949 15.8166023,35.8905477 15.2586873,35.1818117 L11.8610039,30.7849522 C11.2528958,29.9760687 11,29.3694061 11,28.6606701 L11,12.889368 C11,11.9803371 11.4054054,11.2215273 12.5714286,11.1213798 Z"/>
    </g>
    <g transform="translate(10 73)">
      <use fill="#000" filter="url(#hero_image@1x-k)" xlink:href="#hero_image@1x-l"/>
      <use fill="#404040" xlink:href="#hero_image@1x-l"/>
      <path fill="#FFF" fill-rule="nonzero" d="M23.6020866,29.6735702 C23.8951086,29.6739842 24.1656498,29.8293423 24.3117998,30.0811234 C24.4579498,30.3329044 24.4575051,30.6428569 24.3106331,30.8942247 C24.1637611,31.1455926 23.8927752,31.300187 23.5997532,31.2997746 C23.1467804,31.299135 22.7800958,30.9345793 22.7807393,30.4855158 C22.7813844,30.0364523 23.1491138,29.6729322 23.6020866,29.6735702 M36.463626,24.6457594 C36.170604,24.6455526 35.8999517,24.4903854 35.7536211,24.2387076 C35.6072906,23.9870299 35.607513,23.6770774 35.7542045,23.4256063 C35.900896,23.1741351 36.1717707,23.0193498 36.4647927,23.0195562 C36.9177655,23.0198758 37.2847113,23.3841726 37.2843894,23.8332361 C37.284067,24.2822996 36.9165988,24.6460786 36.463626,24.6457594 M36.463626,21.3193302 C35.0633586,21.3206055 33.9285385,22.4456317 33.927252,23.8338144 C33.927252,24.103306 33.9727528,24.3716411 34.0614209,24.6330364 L25.6834533,29.0547812 C25.2118655,28.3759503 24.4335097,27.9706671 23.6020866,27.9710315 C22.6349044,27.9710315 21.754057,28.5204244 21.3270501,29.3774772 L13.8007629,25.4426679 C13.0050834,25.0285992 12.4100739,23.7308755 12.4730749,22.5488135 C12.5057421,21.9323369 12.7204122,21.4534977 13.0482508,21.268439 C13.2559208,21.1527774 13.5055915,21.1620303 13.7715957,21.2996677 L13.8205965,21.3262699 C15.8156285,22.3672247 22.3420664,25.7757735 22.6174041,25.9018447 C23.0409109,26.0973128 23.2765814,26.1759628 23.9999263,25.8359175 L37.4914758,18.880026 C37.6898123,18.8060026 37.920816,18.6174741 37.920816,18.3317898 C37.920816,17.936227 37.5078094,17.7800837 37.5066427,17.7800837 C36.7389638,17.4157495 35.5594449,16.8686699 34.4090931,16.3343131 C31.9497204,15.1927327 29.162509,13.8996354 27.9386561,13.2634964 C26.8816391,12.7152602 26.0311255,13.1779068 25.8794564,13.2704361 L25.5854517,13.4150131 C20.0763634,16.1157126 12.7029119,19.7359222 12.2829052,19.9892212 C11.5327265,20.4426149 11.0672191,21.3459323 11.0065514,22.4666937 C10.9132166,24.2444132 11.8267312,26.0984695 13.1345855,26.7774033 L21.0937131,30.8463801 C21.2749419,32.0818591 22.3427446,32.9986449 23.6020866,33 C24.9863174,32.9976768 26.1137696,31.896929 26.1372939,30.5248407 L34.9037677,25.8139418 C35.3471081,26.1586135 35.8989503,26.347142 36.463626,26.347142 C37.8638935,26.3458667 38.9987136,25.2208405 39,23.8326578 C38.9987136,22.4444751 37.8638935,21.3194489 36.463626,21.3181735"/>
    </g>
    <g transform="translate(134 220)">
      <use fill="#000" filter="url(#hero_image@1x-m)" xlink:href="#hero_image@1x-n"/>
      <use fill="#404040" xlink:href="#hero_image@1x-n"/>
      <path fill="#FFF" fill-rule="nonzero" d="M30.02725,18.5651598 C30.02725,18.5651598 27.838,25.5450551 27.659125,26.1214711 C27.1078328,21.7469642 26.5513324,17.3731373 25.989625,13 C22.259125,13 20.2645,15.6990911 19.210375,18.5480046 L16.32475,26.1386264 C16.307875,25.5942334 15.91975,18.6303497 15.91975,18.6303497 C15.69025,15.1398303 12.54475,13.0148679 10,13.0148679 L13.081375,32 C16.989625,31.9828448 19.09675,29.2997652 20.200375,26.4508517 C20.200375,26.4508517 22.551625,20.2772528 22.648375,19.9970505 C22.66525,20.2600975 24.335875,31.9988563 24.335875,31.9988563 C28.259875,31.9988563 30.368125,29.4804671 31.502125,26.731054 L37,13.0160116 C33.124375,13.0160116 31.081375,15.6990911 30.02725,18.5640161 L30.02725,18.5651598 Z"/>
    </g>
    <g transform="translate(101 113)">
      <use fill="#000" filter="url(#hero_image@1x-o)" xlink:href="#hero_image@1x-p"/>
      <use fill="#404040" xlink:href="#hero_image@1x-p"/>
      <path fill="#FFF" fill-rule="nonzero" d="M32,21.6908981 L25.5125034,21.6908981 L32.6875001,28.5890728 C32.9839567,28.8758258 33.079081,29.317461 32.9276922,29.7042155 C32.7763033,30.09097 32.4089052,30.344915 32,30.3454347 L24,30.3454347 L24,37.9817904 C24.0016936,38.3861568 23.7653008,38.7522072 23.4000043,38.9108804 C23.2748817,38.9706288 23.1382001,39.0010715 23,39 C22.7445772,38.9971228 22.4993987,38.8972684 22.3125048,38.7199715 L13.3125088,30.0654349 C13.112068,29.8743184 12.9988392,29.6068515 13,29.3272539 L13,20.6727173 C13,20.1103916 13.447724,19.6545366 14,19.6545366 L20.4875056,19.6545366 L13.3125088,12.7563618 C13.0160523,12.4696088 12.9209279,12.0279736 13.0723168,11.6412191 C13.2237056,11.2544646 13.5911037,11.0005196 14,11 L32,11 C32.552285,11 33,11.4558551 33,12.0181808 L33,20.6727173 C33,21.235043 32.552285,21.6908981 32,21.6908981 Z"/>
    </g>
    <circle cx="329.5" cy="226.5" r="39.5" fill="#595959"/>
    <circle cx="329.5" cy="226.5" r="53.5" fill="#595959" fill-opacity=".128"/>
    <path fill="#FFF" fill-rule="nonzero" d="M29.3333333,3.66666667 L29.3333333,7.33333333 L22,7.33333333 L22,3.66666667 L29.3333333,3.66666667 M11,3.66666667 L11,14.6666667 L3.66666667,14.6666667 L3.66666667,3.66666667 L11,3.66666667 M29.3333333,18.3333333 L29.3333333,29.3333333 L22,29.3333333 L22,18.3333333 L29.3333333,18.3333333 M11,25.6666667 L11,29.3333333 L3.66666667,29.3333333 L3.66666667,25.6666667 L11,25.6666667 M33,0 L18.3333333,0 L18.3333333,11 L33,11 L33,0 M14.6666667,0 L0,0 L0,18.3333333 L14.6666667,18.3333333 L14.6666667,0 M33,14.6666667 L18.3333333,14.6666667 L18.3333333,33 L33,33 L33,14.6666667 M14.6666667,22 L0,22 L0,33 L14.6666667,33 L14.6666667,22 Z" transform="translate(314 209)"/>
  </g>
</svg>
